<?xml version="1.0" encoding="utf-8"?>
<!-- Generator: Adobe Illustrator 26.1.0, SVG Export Plug-In . SVG Version: 6.00 Build 0)  -->
<svg version="1.1" id="Layer_1" xmlns="http://www.w3.org/2000/svg" xmlns:xlink="http://www.w3.org/1999/xlink" x="0px" y="0px"
	 viewBox="0 0 918 270" style="enable-background:new 0 0 918 270;" xml:space="preserve">
<style type="text/css">
	.st0{fill:#7F9557;}
	.st1{fill:#922B6E;}
	.st2{fill:#2C69B2;}
	.st3{fill:#2099BB;}
	.st4{fill:#01586F;}
</style>
<g>
	<path class="st0" d="M140.85,37.34l-9.65,54.75c-1.46,8.26,4.06,16.14,12.32,17.6l57.59,10.15c8.26,1.46,16.14-4.06,17.6-12.32
		l9.65-54.75c1.46-8.26-4.06-16.14-12.32-17.6l-57.59-10.15C150.19,23.56,142.31,29.08,140.85,37.34z"/>
	<path class="st1" d="M123.32,224.28l57.59,10.15c8.26,1.46,16.14-4.06,17.6-12.32l9.65-54.75c1.46-8.26-4.06-16.14-12.32-17.6
		l-57.59-10.15c-8.26-1.46-16.14,4.06-17.6,12.32l-9.65,54.75C109.54,214.94,115.05,222.82,123.32,224.28z"/>
	<path class="st2" d="M258.27,58.05l-29.86,169.34c-1.46,8.26,4.06,16.14,12.32,17.6l0,0c6.55,1.15,13.08-2.08,16.13-7.98
		l82.72-160.02c4.71-9.1-0.77-20.16-10.86-21.94l-52.86-9.32C267.61,44.26,259.73,49.78,258.27,58.05z"/>
	<path class="st3" d="M91.15,56.8l-46.34-8.17c-10.09-1.78-19.01,6.74-17.71,16.9l23.95,135.17c0.85,6.59,5.88,11.87,12.43,13.02
		l0,0c8.26,1.46,16.14-4.06,17.6-12.32l22.39-127C104.93,66.14,99.41,58.26,91.15,56.8z"/>
</g>
<g>
	<g>
		<path class="st3" d="M420.32,144.6c0.85,0,1.28-0.28,1.28-1.28v-27c0-8.1,6.39-10.09,11.93-10.09c5.4,0,12.22,1.99,12.22,10.09
			v79.85c0,8.1-6.54,10.09-12.22,10.09c-5.4,0-11.93-1.99-11.93-10.09v-27.28c0-0.99-0.43-1.28-1.28-1.28h-25.15
			c-0.99,0-1.28,0.28-1.28,1.28v27.28c0,8.1-6.54,10.09-12.22,10.09c-5.4,0-11.93-1.99-11.93-10.09v-79.85
			c0-8.1,6.54-10.09,11.93-10.09c5.68,0,12.22,1.99,12.22,10.09v27c0,0.99,0.28,1.28,1.28,1.28H420.32z"/>
		<path class="st3" d="M525.87,106.8c7.96,0,10.37,5.54,10.37,11.65c0,5.83-2.42,11.37-10.37,11.37H495.9
			c-0.99,0-1.28,0.28-1.28,1.28v10.94c0,0.99,0.28,1.28,1.28,1.28h25.01c7.96,0,10.37,5.54,10.37,11.65
			c0,5.83-2.42,11.37-10.37,11.37H495.9c-0.99,0-1.28,0.28-1.28,1.28v13.78c0,0.99,0.28,1.28,1.28,1.28h31.4
			c7.96,0,10.37,5.54,10.37,11.65c0,5.83-2.41,11.37-10.37,11.37h-45.46c-5.97,0-11.37-2.56-11.37-10.66v-77.29
			c0-8.1,5.4-10.94,11.37-10.94H525.87z"/>
		<path class="st3" d="M611.54,119.17l24.44,71.75c0.57,1.85,0.85,3.41,0.85,4.83c0,6.68-6.11,10.51-12.5,10.51
			c-4.26,0-8.67-1.99-10.51-7.96l-2.7-8.67c-0.43-1.14-1.14-1.7-1.99-1.7h-27.85c-0.85,0-1.56,0.57-1.99,1.7l-2.7,8.67
			c-1.85,5.97-6.25,7.96-10.51,7.96c-5.83,0-12.5-3.41-12.5-10.51c0-1.42,0.28-2.98,0.85-4.83l24.44-71.75
			c3.84-11.08,10.94-12.93,16.34-12.93C600.6,106.24,607.7,108.08,611.54,119.17z M593.35,136.5l-7.96,28.13
			c0,0-0.14,0.43-0.14,0.71c0,0.57,0.43,0.99,0.99,0.99h17.9c0.57,0,0.99-0.43,0.99-0.99c0-0.29-0.14-0.71-0.14-0.71l-7.96-28.13
			c-0.71-2.27-0.71-3.98-1.85-3.98C594.06,132.52,594.06,134.23,593.35,136.5z"/>
		<path class="st3" d="M682.14,181.4c0,0.99,0.28,1.28,1.28,1.28h25.29c7.96,0,10.37,5.54,10.37,11.65
			c0,5.83-2.41,11.37-10.37,11.37h-39.07c-6.25,0-11.51-2.27-11.51-10.66v-78.71c0-8.1,6.54-10.09,11.93-10.09
			c5.68,0,12.22,1.99,12.22,10.09L682.14,181.4z"/>
		<path class="st3" d="M729.73,129.82c-7.96,0-10.37-5.54-10.37-11.37c0-6.11,2.42-11.65,10.37-11.65h55.13
			c7.96,0,10.37,5.54,10.37,11.65c0,5.83-2.42,11.37-10.37,11.37h-14.35c-0.85,0-1.28,0.28-1.28,1.28v65.07
			c0,8.24-6.54,10.09-11.93,10.09c-5.68,0-12.22-1.85-12.22-10.09V131.1c0-1-0.28-1.28-1.28-1.28H729.73z"/>
		<path class="st3" d="M865.55,144.6c0.85,0,1.28-0.28,1.28-1.28v-27c0-8.1,6.39-10.09,11.93-10.09c5.4,0,12.22,1.99,12.22,10.09
			v79.85c0,8.1-6.54,10.09-12.22,10.09c-5.4,0-11.93-1.99-11.93-10.09v-27.28c0-0.99-0.43-1.28-1.28-1.28H840.4
			c-0.99,0-1.28,0.28-1.28,1.28v27.28c0,8.1-6.54,10.09-12.22,10.09c-5.4,0-11.93-1.99-11.93-10.09v-79.85
			c0-8.1,6.54-10.09,11.93-10.09c5.68,0,12.22,1.99,12.22,10.09v27c0,0.99,0.28,1.28,1.28,1.28H865.55z"/>
	</g>
	<g>
		<path class="st4" d="M379.99,84.17h-4.14l-4.92-21.49h4.67l2.87,14.14l4.08-14.14h3.93l4.2,14.23l2.83-14.23h4.7l-4.95,21.49
			h-4.17l-4.55-14.79L379.99,84.17z"/>
		<path class="st4" d="M407.69,74.83h3.08v-0.9c0-1.75-0.53-2.3-2.77-2.3c-1.53,0-2.27,0.22-2.93,1.25l-2.8-1.96
			c1.15-1.9,2.9-2.58,6.1-2.58c4.02,0,6.29,1.18,6.29,5.64v10.22h-3.89V82.8c-0.62,1.06-1.56,1.65-3.36,1.65
			c-3.24,0-5.48-1.71-5.48-4.89C401.92,76.26,404.42,74.83,407.69,74.83z M410.77,77.75h-2.62c-1.62,0-2.34,0.53-2.34,1.75
			c0,1.18,0.9,1.74,2.27,1.74c1.81,0,2.68-0.78,2.68-2.9V77.75z"/>
		<path class="st4" d="M429.49,72.99c-0.69-0.81-1.37-1.25-3.05-1.25c-1.03,0-1.96,0.31-1.96,1.22c0,0.93,0.84,1.28,2.49,1.53
			c3.83,0.59,5.76,2.06,5.76,5.14c0,2.99-2.09,4.83-6.1,4.83c-3.18,0-5.11-0.78-6.45-2.58l3.05-2.18c0.62,0.84,1.4,1.34,3.33,1.34
			c1.37,0,2.21-0.47,2.21-1.28c0-0.97-0.69-1.28-2.65-1.59c-3.24-0.53-5.61-1.9-5.61-5.05c0-2.96,2.12-4.8,6.01-4.8
			c2.55,0,4.67,0.59,5.89,2.58L429.49,72.99z"/>
		<path class="st4" d="M438.53,62.68h3.99v7.13c0.59-0.78,1.68-1.5,3.49-1.5c3.15,0,5.7,1.5,5.7,6.11v9.75h-3.96v-9.13
			c0-2.43-0.87-3.3-2.49-3.3c-1.84,0-2.74,1.22-2.74,3.27v9.16h-3.99V62.68z"/>
		<path class="st4" d="M458.34,62.68h4.3v3.86h-4.3V62.68z M458.49,68.6h3.99v15.57h-3.99V68.6z"/>
		<path class="st4" d="M469.24,68.6h3.89v1.31c0.59-0.78,1.84-1.59,3.58-1.59c3.15,0,5.7,1.5,5.7,6.11v9.75h-3.96v-9.13
			c0-2.43-0.87-3.3-2.49-3.3c-1.84,0-2.74,1.22-2.74,3.27v9.16h-3.99V68.6z"/>
		<path class="st4" d="M497.68,68.6h3.96v15.26c0,5.2-2.93,6.42-6.85,6.42c-2.9,0-4.73-0.69-6.11-2.8l2.68-1.93
			c0.69,0.93,1.59,1.4,3.05,1.4c2.37,0,3.27-0.69,3.27-3.08v-0.5c-0.84,0.72-1.93,1.09-3.33,1.09c-4.08,0-6.17-2.9-6.17-7.04V75.3
			c0-4.55,2.46-6.98,6.17-6.98c1.4,0,2.49,0.37,3.33,1.09V68.6z M497.68,77.51v-1.96c0-2.49-0.81-3.86-2.77-3.86
			c-1.96,0-2.77,1.37-2.77,3.86v1.62c0,2.24,0.62,3.92,2.77,3.92C497.03,81.09,497.68,79.56,497.68,77.51z"/>
		<path class="st4" d="M506.81,68.6h1.99v-3.43h3.96v3.43h3.05v3.36h-3.05v6.51c0,1.56,0.31,2.21,1.78,2.21h1.28v3.49h-1.68
			c-3.77,0-5.33-1.06-5.33-5.08v-7.13h-1.99V68.6z"/>
		<path class="st4" d="M534.28,77.29c0,4.27-2.03,7.16-6.73,7.16c-4.52,0-6.73-2.8-6.73-7.16v-1.87c0-4.67,2.46-7.1,6.73-7.1
			c4.33,0,6.73,2.43,6.73,7.1V77.29z M530.33,77.16v-1.62c0-2.49-0.81-3.86-2.77-3.86c-1.96,0-2.77,1.37-2.77,3.86v1.62
			c0,2.24,0.56,3.92,2.77,3.92C529.74,81.09,530.33,79.41,530.33,77.16z"/>
		<path class="st4" d="M540.05,68.6h3.89v1.31c0.59-0.78,1.84-1.59,3.58-1.59c3.15,0,5.7,1.5,5.7,6.11v9.75h-3.96v-9.13
			c0-2.43-0.87-3.3-2.49-3.3c-1.84,0-2.74,1.22-2.74,3.27v9.16h-3.99V68.6z"/>
		<path class="st4" d="M582.16,68.26c-0.93-1.46-2.05-2.18-4.24-2.18c-1.96,0-3.02,0.9-3.02,2.37c0,1.68,1.37,2.43,4.24,3.15
			c4.49,1.12,6.51,2.8,6.51,6.6c0,3.52-2.37,6.26-7.41,6.26c-3.77,0-6.38-1.03-8.28-3.52l3.33-2.3c1.15,1.43,2.46,2.15,4.67,2.15
			c2.49,0,3.33-1.09,3.33-2.4c0-1.5-0.9-2.34-4.39-3.24c-4.24-1.12-6.35-3.15-6.35-6.7c0-3.4,2.24-6.04,7.35-6.04
			c3.43,0,6.01,1.15,7.54,3.52L582.16,68.26z"/>
		<path class="st4" d="M590.33,68.6h1.99v-3.43h3.96v3.43h3.05v3.36h-3.05v6.51c0,1.56,0.31,2.21,1.78,2.21h1.28v3.49h-1.68
			c-3.77,0-5.33-1.06-5.33-5.08v-7.13h-1.99V68.6z"/>
		<path class="st4" d="M609.89,74.83h3.08v-0.9c0-1.75-0.53-2.3-2.77-2.3c-1.53,0-2.27,0.22-2.93,1.25l-2.8-1.96
			c1.15-1.9,2.9-2.58,6.1-2.58c4.02,0,6.29,1.18,6.29,5.64v10.22h-3.89V82.8c-0.62,1.06-1.56,1.65-3.36,1.65
			c-3.24,0-5.48-1.71-5.48-4.89C604.13,76.26,606.62,74.83,609.89,74.83z M612.97,77.75h-2.62c-1.62,0-2.34,0.53-2.34,1.75
			c0,1.18,0.9,1.74,2.27,1.74c1.81,0,2.68-0.78,2.68-2.9V77.75z"/>
		<path class="st4" d="M622.01,68.6H624v-3.43h3.96v3.43h3.05v3.36h-3.05v6.51c0,1.56,0.31,2.21,1.78,2.21h1.28v3.49h-1.68
			c-3.77,0-5.33-1.06-5.33-5.08v-7.13h-1.99V68.6z"/>
		<path class="st4" d="M648.64,81.8c-1.09,1.9-2.9,2.65-5.7,2.65c-4.67,0-6.92-3.02-6.92-7.04V75.3c0-4.7,2.37-6.98,6.42-6.98
			c4.39,0,6.42,2.55,6.42,7.29v1.78h-8.88c0.03,2.15,0.72,3.71,2.93,3.71c1.65,0,2.18-0.5,2.77-1.34L648.64,81.8z M639.98,74.55
			h4.89c-0.09-2.03-0.9-2.87-2.4-2.87C640.89,71.68,640.14,72.77,639.98,74.55z"/>
		<path class="st4" d="M666.28,84.17V62.68h7.63c4.86,0,8.25,2.49,8.25,9.34v2.8c0,6.82-3.39,9.34-8.25,9.34H666.28z M677.8,74.83
			v-2.8c0-3.71-1-5.64-3.89-5.64h-3.27V80.5h3.27C676.8,80.5,677.8,78.53,677.8,74.83z"/>
		<path class="st4" d="M700.38,81.8c-1.09,1.9-2.9,2.65-5.7,2.65c-4.67,0-6.92-3.02-6.92-7.04V75.3c0-4.7,2.37-6.98,6.42-6.98
			c4.39,0,6.42,2.55,6.42,7.29v1.78h-8.88c0.03,2.15,0.72,3.71,2.93,3.71c1.65,0,2.18-0.5,2.77-1.34L700.38,81.8z M691.73,74.55
			h4.89c-0.09-2.03-0.9-2.87-2.4-2.87C692.63,71.68,691.88,72.77,691.73,74.55z"/>
		<path class="st4" d="M720.07,77.41c0,4.05-2.06,7.04-6.07,7.04c-1.62,0-2.71-0.31-3.43-0.9v6.54h-3.99V68.6h3.99v1.03
			c0.75-0.84,1.87-1.31,3.46-1.31c3.61,0,6.04,2.52,6.04,6.98V77.41z M716.09,77.16v-1.62c0-2.49-0.78-3.86-2.74-3.86
			c-1.9,0-2.77,1.25-2.77,3.52v1.96c0,2.24,0.53,3.92,2.77,3.92C715.49,81.09,716.09,79.41,716.09,77.16z"/>
		<path class="st4" d="M730.79,74.83h3.08v-0.9c0-1.75-0.53-2.3-2.77-2.3c-1.53,0-2.27,0.22-2.93,1.25l-2.8-1.96
			c1.15-1.9,2.9-2.58,6.1-2.58c4.02,0,6.29,1.18,6.29,5.64v10.22h-3.89V82.8c-0.62,1.06-1.56,1.65-3.36,1.65
			c-3.24,0-5.48-1.71-5.48-4.89C725.03,76.26,727.52,74.83,730.79,74.83z M733.87,77.75h-2.62c-1.62,0-2.34,0.53-2.34,1.75
			c0,1.18,0.9,1.74,2.27,1.74c1.81,0,2.68-0.78,2.68-2.9V77.75z"/>
		<path class="st4" d="M752.5,72.93c-0.4-0.59-0.97-1.18-1.96-1.18c-1.49,0-2.49,1.09-2.49,3.27v9.16h-3.99V68.6h3.89v1.31
			c0.53-0.78,1.56-1.59,3.39-1.59c1.87,0,3.27,0.81,4.2,2.43L752.5,72.93z"/>
		<path class="st4" d="M758.95,68.6h1.99v-3.43h3.96v3.43h3.05v3.36h-3.05v6.51c0,1.56,0.31,2.21,1.78,2.21h1.28v3.49h-1.68
			c-3.77,0-5.33-1.06-5.33-5.08v-7.13h-1.99V68.6z"/>
		<path class="st4" d="M786.3,84.17h-3.96v-9.13c0-2.49-0.97-3.3-2.37-3.3c-1.43,0-2.46,1.06-2.46,3.27v9.16h-3.99V68.6h3.89v1.31
			c0.59-0.81,1.71-1.59,3.46-1.59c1.87,0,3.39,0.72,4.36,2.09c1-1.21,2.52-2.09,4.49-2.09c3.39,0,5.39,2.06,5.39,6.11v9.75h-3.99
			v-9.13c0-2.34-0.81-3.3-2.4-3.3c-1.43,0-2.43,1.06-2.43,3.27V84.17z"/>
		<path class="st4" d="M813.47,81.8c-1.09,1.9-2.9,2.65-5.7,2.65c-4.67,0-6.92-3.02-6.92-7.04V75.3c0-4.7,2.37-6.98,6.42-6.98
			c4.39,0,6.42,2.55,6.42,7.29v1.78h-8.88c0.03,2.15,0.72,3.71,2.93,3.71c1.65,0,2.18-0.5,2.77-1.34L813.47,81.8z M804.81,74.55
			h4.89c-0.09-2.03-0.9-2.87-2.4-2.87C805.71,71.68,804.96,72.77,804.81,74.55z"/>
		<path class="st4" d="M819.67,68.6h3.89v1.31c0.59-0.78,1.84-1.59,3.58-1.59c3.15,0,5.7,1.5,5.7,6.11v9.75h-3.96v-9.13
			c0-2.43-0.87-3.3-2.49-3.3c-1.84,0-2.74,1.22-2.74,3.27v9.16h-3.99V68.6z"/>
		<path class="st4" d="M838.01,68.6h1.99v-3.43h3.96v3.43h3.05v3.36h-3.05v6.51c0,1.56,0.31,2.21,1.78,2.21h1.28v3.49h-1.68
			c-3.77,0-5.33-1.06-5.33-5.08v-7.13h-1.99V68.6z"/>
		<path class="st4" d="M876.39,77.29c0,4.27-2.03,7.16-6.73,7.16c-4.52,0-6.73-2.8-6.73-7.16v-1.87c0-4.67,2.46-7.1,6.73-7.1
			c4.33,0,6.73,2.43,6.73,7.1V77.29z M872.43,77.16v-1.62c0-2.49-0.81-3.86-2.77-3.86c-1.96,0-2.77,1.37-2.77,3.86v1.62
			c0,2.24,0.56,3.92,2.77,3.92C871.84,81.09,872.43,79.41,872.43,77.16z"/>
		<path class="st4" d="M883,68.6v-0.84c0-4.02,1.56-5.08,5.33-5.08h1.15v3.49h-0.75c-1.46,0-1.78,0.65-1.78,2.21v0.22h2.52v3.36
			h-2.52v12.21H883V71.96H881V68.6H883z"/>
	</g>
</g>
</svg>
